<?xml version="1.0" encoding="UTF-8"?>
<svg id="Calque_1" data-name="Calque 1" xmlns="http://www.w3.org/2000/svg" viewBox="0 0 188.68 180.84">
  <defs>
    <style>
      .cls-1 {
        fill: #78c2ad;
      }
    </style>
  </defs>
  <path class="cls-1" d="M78.91,132.62c-.46,1.93-1.51,3.67-3.17,5.23-1.38,1.29-3.35,2.5-5.92,3.65-2.57,1.15-6.2,1.72-10.88,1.72s-8.36-.69-11.02-2.07c-2.66-1.38-4.68-3.03-6.06-4.96s-2.25-3.86-2.62-5.78c-.37-1.93-.55-3.44-.55-4.54,0-.28,.02-.48,.07-.62,.05-.14,.07-.3,.07-.48V63.48c0-.73,.16-2.02,.48-3.86,.32-1.84,1.15-3.69,2.48-5.58,1.33-1.88,3.37-3.56,6.13-5.03,2.75-1.47,6.61-2.2,11.57-2.2h.14c.37,0,1.15,.05,2.34,.14,1.19,.09,2.57,.32,4.13,.69,1.56,.37,3.21,.92,4.96,1.65,1.74,.74,3.33,1.75,4.75,3.03,1.42,1.29,2.62,2.94,3.58,4.96,.96,2.02,1.45,4.45,1.45,7.3v14.18c1.56-1.1,3.35-2.11,5.37-3.03,1.74-.73,3.76-1.4,6.06-2,2.29-.6,4.87-.9,7.71-.9h1.65c.55,0,1.1,.05,1.65,.14,3.58,.09,7.18,.71,10.81,1.86,3.63,1.15,6.91,3.1,9.85,5.85,2.94,2.75,5.35,6.5,7.23,11.22,1.88,4.73,2.82,10.77,2.82,18.11,0,5.33-.74,9.85-2.2,13.56-1.47,3.72-3.33,6.77-5.58,9.16-2.25,2.39-4.71,4.25-7.37,5.58-2.66,1.33-5.19,2.32-7.57,2.96-2.39,.64-4.43,1.03-6.13,1.17-1.7,.14-2.69,.21-2.96,.21h-.55c-.55,0-1.7-.07-3.44-.21-1.74-.14-3.72-.53-5.92-1.17-2.2-.64-4.5-1.65-6.89-3.03-2.39-1.38-4.54-3.26-6.47-5.65Zm-3.03-25.34c0,3.3,1.01,6.15,3.03,8.54,2.02,2.39,4.54,3.58,7.57,3.58s5.42-1.19,7.44-3.58c2.02-2.39,3.03-5.23,3.03-8.54s-1.01-6.29-3.03-8.68c-2.02-2.39-4.5-3.58-7.44-3.58s-5.56,1.19-7.57,3.58c-2.02,2.39-3.03,5.28-3.03,8.68Z"/>
  <path class="cls-1" d="M168.36,0c.57,0,1.45,.1,2.66,.28,1.2,.19,2.55,.57,4.03,1.14,1.49,.57,3.04,1.38,4.65,2.42,1.61,1.04,3.08,2.42,4.41,4.13,1.33,1.71,2.42,3.81,3.27,6.31,.85,2.5,1.28,5.46,1.28,8.88,0,4.75-.62,8.72-1.85,11.91-1.23,3.2-2.83,5.76-4.79,7.69-1.96,1.93-4.16,3.34-6.6,4.22-2.44,.89-4.83,1.42-7.17,1.61h-1.52c-2.09,0-3.97-.24-5.65-.71-1.68-.47-3.15-.96-4.41-1.47-1.46-.63-2.72-1.33-3.8-2.09l-.38,9.78c-.06,2.85-.73,5.09-1.99,6.74-1.27,1.65-2.67,2.86-4.22,3.65-1.55,.79-3.08,1.28-4.6,1.47-1.52,.19-2.6,.28-3.23,.28h-.57c-3.35,0-5.98-.49-7.88-1.47-1.9-.98-3.32-2.12-4.27-3.42-.95-1.3-1.54-2.58-1.76-3.84-.22-1.27-.33-2.15-.33-2.66V12.25c0-.7,.13-1.72,.38-3.08,.25-1.36,.85-2.72,1.8-4.08,.95-1.36,2.37-2.55,4.27-3.56,1.9-1.01,4.49-1.52,7.78-1.52,3.04,0,5.46,.38,7.26,1.14,1.8,.76,3.15,1.58,4.03,2.47,1.08,1.08,1.77,2.31,2.09,3.7,1.33-1.71,2.78-3.04,4.37-3.99,1.58-.95,3.1-1.68,4.56-2.18,1.46-.51,2.8-.82,4.03-.95,1.23-.13,2.17-.19,2.8-.19h1.33Zm-4.08,24.87c0-2.28-.7-4.24-2.09-5.89-1.39-1.65-3.13-2.47-5.22-2.47s-3.73,.82-5.13,2.47c-1.39,1.65-2.09,3.61-2.09,5.89s.7,4.33,2.09,5.98c1.39,1.65,3.1,2.47,5.13,2.47s3.83-.82,5.22-2.47c1.39-1.65,2.09-3.64,2.09-5.98Z"/>
  <path class="cls-1" d="M85.5,180.84C38.35,180.84,0,142.48,0,95.34S38.35,9.84,85.5,9.84c3.04,0,5.5,2.46,5.5,5.5s-2.46,5.5-5.5,5.5C44.42,20.84,11,54.26,11,95.34s33.42,74.5,74.5,74.5,74.5-33.42,74.5-74.5c0-3.04,2.46-5.5,5.5-5.5s5.5,2.46,5.5,5.5c0,47.15-38.35,85.5-85.5,85.5Z"/>
  <circle class="cls-1" cx="166" cy="74.84" r="7"/>
</svg>