<?xml version="1.0" encoding="utf-8"?>
<!-- Generator: Adobe Illustrator 26.5.0, SVG Export Plug-In . SVG Version: 6.00 Build 0)  -->
<svg version="1.1" id="Calque_1" xmlns="http://www.w3.org/2000/svg" xmlns:xlink="http://www.w3.org/1999/xlink" x="0px" y="0px"
	 viewBox="0 0 1366 768" style="enable-background:new 0 0 1366 768;" xml:space="preserve">
<style type="text/css">
	.st0{fill:#78C2AD;}
	.st1{fill:#FFFFFF;}
	.st2{fill:#C1C1C1;}
	.st3{font-family:'teaspoon';}
	.st4{font-size:12px;}
	.st5{fill:#F44040;}
</style>
<rect class="st0" width="1366" height="64"/>
<g>
	<g>
		<path class="st1" d="M29.11,41.57c-0.1,0.44-0.34,0.83-0.72,1.19c-0.31,0.29-0.76,0.57-1.34,0.83c-0.58,0.26-1.41,0.39-2.47,0.39
			c-1.06,0-1.9-0.16-2.5-0.47c-0.6-0.31-1.06-0.69-1.37-1.12c-0.31-0.44-0.51-0.87-0.59-1.31c-0.08-0.44-0.12-0.78-0.12-1.03
			c0-0.06,0-0.11,0.02-0.14c0.01-0.03,0.02-0.07,0.02-0.11V39.7V25.89c0-0.17,0.04-0.46,0.11-0.87c0.07-0.42,0.26-0.84,0.56-1.26
			c0.3-0.43,0.77-0.81,1.39-1.14c0.62-0.33,1.5-0.5,2.62-0.5h0.03c0.08,0,0.26,0.01,0.53,0.03c0.27,0.02,0.58,0.07,0.94,0.16
			c0.35,0.08,0.73,0.21,1.12,0.37c0.4,0.17,0.75,0.4,1.08,0.69c0.32,0.29,0.59,0.67,0.81,1.12c0.22,0.46,0.33,1.01,0.33,1.66v3.22
			c0.35-0.25,0.76-0.48,1.22-0.69c0.4-0.17,0.85-0.32,1.37-0.45c0.52-0.14,1.1-0.2,1.75-0.2c0.12,0,0.25,0,0.37,0
			c0.12,0,0.25,0.01,0.37,0.03c0.81,0.02,1.63,0.16,2.45,0.42c0.82,0.26,1.57,0.7,2.23,1.33c0.67,0.62,1.21,1.47,1.64,2.55
			c0.43,1.07,0.64,2.44,0.64,4.11c0,1.21-0.17,2.23-0.5,3.08c-0.33,0.84-0.75,1.54-1.27,2.08c-0.51,0.54-1.07,0.96-1.67,1.26
			c-0.6,0.3-1.18,0.53-1.72,0.67c-0.54,0.15-1,0.23-1.39,0.27c-0.39,0.03-0.61,0.05-0.67,0.05h-0.12c-0.12,0-0.39-0.02-0.78-0.05
			c-0.4-0.03-0.84-0.12-1.34-0.27c-0.5-0.15-1.02-0.37-1.56-0.69C30.03,42.54,29.54,42.11,29.11,41.57z M28.42,35.82
			c0,0.75,0.23,1.4,0.69,1.94c0.46,0.54,1.03,0.81,1.72,0.81c0.67,0,1.23-0.27,1.69-0.81c0.46-0.54,0.69-1.19,0.69-1.94
			c0-0.77-0.23-1.43-0.69-1.97c-0.46-0.54-1.02-0.81-1.69-0.81c-0.69,0-1.26,0.27-1.72,0.81C28.65,34.4,28.42,35.05,28.42,35.82z"/>
	</g>
	<g>
		<path class="st1" d="M49.39,11.49c0.13,0,0.33,0.02,0.6,0.06c0.27,0.04,0.58,0.13,0.91,0.26c0.34,0.13,0.69,0.31,1.05,0.55
			c0.37,0.24,0.7,0.55,1,0.94c0.3,0.39,0.55,0.86,0.74,1.43C53.9,15.3,54,15.97,54,16.75c0,1.08-0.14,1.98-0.42,2.7
			c-0.28,0.72-0.64,1.31-1.09,1.74c-0.44,0.44-0.94,0.76-1.5,0.96c-0.55,0.2-1.09,0.32-1.63,0.37h-0.34c-0.47,0-0.9-0.05-1.28-0.16
			c-0.38-0.11-0.71-0.22-1-0.33c-0.33-0.14-0.62-0.3-0.86-0.47l-0.09,2.22c-0.01,0.65-0.17,1.16-0.45,1.53
			c-0.29,0.37-0.61,0.65-0.96,0.83c-0.35,0.18-0.7,0.29-1.04,0.33c-0.34,0.04-0.59,0.06-0.73,0.06h-0.13
			c-0.76,0-1.36-0.11-1.79-0.33c-0.43-0.22-0.75-0.48-0.97-0.78c-0.22-0.29-0.35-0.58-0.4-0.87c-0.05-0.29-0.08-0.49-0.08-0.6v-9.67
			c0-0.16,0.03-0.39,0.09-0.7c0.06-0.31,0.19-0.62,0.41-0.93c0.22-0.31,0.54-0.58,0.97-0.81c0.43-0.23,1.02-0.34,1.77-0.34
			c0.69,0,1.24,0.09,1.65,0.26c0.41,0.17,0.71,0.36,0.91,0.56c0.24,0.24,0.4,0.52,0.47,0.84c0.3-0.39,0.63-0.69,0.99-0.9
			c0.36-0.22,0.7-0.38,1.03-0.5c0.33-0.11,0.64-0.19,0.91-0.22c0.28-0.03,0.49-0.04,0.64-0.04H49.39z M48.47,17.13
			c0-0.52-0.16-0.96-0.47-1.33c-0.32-0.37-0.71-0.56-1.18-0.56c-0.46,0-0.85,0.19-1.16,0.56c-0.32,0.37-0.47,0.82-0.47,1.33
			c0,0.53,0.16,0.98,0.47,1.36c0.32,0.37,0.7,0.56,1.16,0.56c0.47,0,0.87-0.19,1.18-0.56C48.31,18.12,48.47,17.66,48.47,17.13z"/>
	</g>
	<g>
		<g>
			<path class="st1" d="M30.6,52.51c-10.69,0-19.39-8.7-19.39-19.39s8.7-19.39,19.39-19.39c0.69,0,1.25,0.56,1.25,1.25
				s-0.56,1.25-1.25,1.25c-9.32,0-16.9,7.58-16.9,16.9s7.58,16.9,16.9,16.9s16.9-7.58,16.9-16.9c0-0.69,0.56-1.25,1.25-1.25
				s1.25,0.56,1.25,1.25C49.99,43.81,41.29,52.51,30.6,52.51z"/>
		</g>
	</g>
	<g>
		<circle class="st1" cx="48.86" cy="28.47" r="1.59"/>
	</g>
</g>
<path class="st2" d="M1156.92,284H209.08c-57.44,0-104-46.56-104-104v0c0-57.44,46.56-104,104-104h947.85c57.44,0,104,46.56,104,104
	v0C1260.92,237.44,1214.36,284,1156.92,284z"/>
<g>
	<path class="st1" d="M504.61-102H38.39C32.65-102,28-106.65,28-112.39v-352.22c0-5.74,4.65-10.39,10.39-10.39h466.22
		c5.74,0,10.39,4.65,10.39,10.39v352.22C515-106.65,510.35-102,504.61-102z"/>
</g>
<text transform="matrix(1 0 0 1 62.3706 -439.8887)"><tspan x="0" y="0" class="st3 st4">Panier</tspan><tspan x="0" y="14.4" class="st3 st4">caroussel</tspan><tspan x="0" y="28.8" class="st3 st4">card produit</tspan><tspan x="0" y="43.2" class="st3 st4">trois formule package</tspan><tspan x="0" y="57.6" class="st3 st4">feedback commentaire</tspan><tspan x="0" y="72" class="st3 st4">nav bar - about</tspan><tspan x="0" y="86.4" class="st3 st4" style="letter-spacing:31;">	</tspan><tspan x="36" y="86.4" class="st3 st4">    - produit </tspan><tspan x="0" y="100.8" class="st3 st4" style="letter-spacing:31;">	</tspan><tspan x="36" y="100.8" class="st3 st4">    - contact rs adresse ou nous trouver</tspan><tspan x="0" y="115.2" class="st3 st4" style="letter-spacing:31;">	</tspan><tspan x="36" y="115.2" class="st3 st4">    -panier ajout input payment</tspan><tspan x="0" y="129.6" class="st3 st4" style="letter-spacing:31;">	</tspan><tspan x="36" y="129.6" class="st3 st4">    -t</tspan><tspan x="68.06" y="129.6" class="st3 st4">	</tspan><tspan x="72" y="129.6" class="st3 st4"> </tspan><tspan x="0" y="144" class="st3 st4" style="letter-spacing:31;">		</tspan></text>
<rect x="1395" class="st1" width="453" height="1194"/>
<path class="st0" d="M1848,0h-453v64h192.46c2.08,15.07,15.04,26.71,30.67,26.71c15.63,0,28.59-11.64,30.67-26.71H1848V0z
	 M1622.28,64.06c0,1.2-0.37,2.23-1.1,3.09c-0.73,0.87-1.63,1.3-2.69,1.3c-1.1,0-2.01-0.43-2.74-1.3c-0.73-0.86-1.1-1.9-1.1-3.09
	c0-0.02,0-0.04,0-0.06h7.62C1622.28,64.02,1622.28,64.04,1622.28,64.06z M1618.13,86.73c-13.43,0-24.6-9.86-26.65-22.73h9.74v6.25
	v0.15c0,0.07-0.01,0.12-0.02,0.17c-0.02,0.05-0.02,0.12-0.02,0.22c0,0.4,0.07,0.95,0.2,1.65c0.13,0.7,0.45,1.4,0.95,2.1
	c0.5,0.7,1.23,1.3,2.2,1.8c0.96,0.5,2.29,0.75,3.99,0.75c1.7,0,3.01-0.21,3.94-0.62c0.93-0.42,1.65-0.86,2.15-1.32
	c0.6-0.57,0.98-1.2,1.15-1.9c0.7,0.87,1.48,1.55,2.34,2.05c0.86,0.5,1.7,0.87,2.49,1.1c0.8,0.23,1.51,0.37,2.15,0.42
	c0.63,0.05,1.05,0.07,1.25,0.07h0.2c0.1,0,0.46-0.02,1.07-0.07c0.61-0.05,1.35-0.19,2.22-0.42c0.86-0.23,1.78-0.59,2.74-1.07
	c0.96-0.48,1.85-1.15,2.67-2.02c0.81-0.86,1.49-1.97,2.02-3.32c0.53-1.35,0.8-2.98,0.8-4.91c0-0.37-0.02-0.71-0.04-1.06h9.11
	C1642.73,76.86,1631.56,86.73,1618.13,86.73z"/>
<g>
	<path class="st1" d="M1821.41,21.57h-50.58c-3.47,0-6.29-2.81-6.29-6.29v0c0-3.47,2.81-6.29,6.29-6.29h50.58
		c3.47,0,6.29,2.81,6.29,6.29v0C1827.7,18.76,1824.88,21.57,1821.41,21.57z"/>
	<path class="st1" d="M1821.41,37.79h-50.58c-3.47,0-6.29-2.81-6.29-6.29v0c0-3.47,2.81-6.29,6.29-6.29h50.58
		c3.47,0,6.29,2.81,6.29,6.29v0C1827.7,34.97,1824.88,37.79,1821.41,37.79z"/>
	<path class="st1" d="M1821.41,54h-50.58c-3.47,0-6.29-2.81-6.29-6.29v0c0-3.47,2.81-6.29,6.29-6.29h50.58
		c3.47,0,6.29,2.81,6.29,6.29v0C1827.7,51.19,1824.88,54,1821.41,54z"/>
</g>
<g>
	<g>
		<path class="st1" d="M1614.25,70.74c-0.17,0.7-0.55,1.33-1.15,1.9c-0.5,0.47-1.21,0.91-2.15,1.32c-0.93,0.42-2.25,0.62-3.94,0.62
			c-1.7,0-3.03-0.25-3.99-0.75c-0.97-0.5-1.7-1.1-2.2-1.8s-0.82-1.4-0.95-2.1c-0.13-0.7-0.2-1.25-0.2-1.65
			c0-0.1,0.01-0.17,0.02-0.22c0.02-0.05,0.02-0.11,0.02-0.17v-0.15V45.7c0-0.27,0.06-0.73,0.17-1.4c0.12-0.66,0.42-1.34,0.9-2.02
			c0.48-0.68,1.22-1.29,2.22-1.82c1-0.53,2.39-0.8,4.19-0.8h0.05c0.13,0,0.42,0.02,0.85,0.05c0.43,0.03,0.93,0.12,1.5,0.25
			c0.57,0.13,1.16,0.33,1.8,0.6c0.63,0.27,1.21,0.63,1.72,1.1c0.52,0.47,0.95,1.06,1.3,1.8c0.35,0.73,0.52,1.61,0.52,2.64v5.14
			c0.57-0.4,1.21-0.76,1.95-1.1c0.63-0.27,1.36-0.51,2.2-0.72c0.83-0.22,1.76-0.32,2.79-0.32c0.2,0,0.4,0,0.6,0
			c0.2,0,0.4,0.02,0.6,0.05c1.3,0.03,2.6,0.26,3.92,0.67c1.31,0.42,2.5,1.12,3.57,2.12c1.06,1,1.94,2.35,2.62,4.07
			c0.68,1.71,1.02,3.9,1.02,6.56c0,1.93-0.27,3.57-0.8,4.91c-0.53,1.35-1.21,2.45-2.02,3.32c-0.82,0.87-1.7,1.54-2.67,2.02
			c-0.97,0.48-1.88,0.84-2.74,1.07c-0.87,0.23-1.61,0.37-2.22,0.42c-0.62,0.05-0.97,0.07-1.07,0.07h-0.2c-0.2,0-0.62-0.02-1.25-0.07
			c-0.63-0.05-1.35-0.19-2.15-0.42c-0.8-0.23-1.63-0.6-2.49-1.1C1615.73,72.29,1614.94,71.61,1614.25,70.74z M1613.15,61.56
			c0,1.2,0.37,2.23,1.1,3.09c0.73,0.87,1.65,1.3,2.74,1.3c1.06,0,1.96-0.43,2.69-1.3c0.73-0.86,1.1-1.9,1.1-3.09
			c0-1.23-0.37-2.28-1.1-3.14c-0.73-0.86-1.63-1.3-2.69-1.3c-1.1,0-2.01,0.43-2.74,1.3C1613.51,59.29,1613.15,60.33,1613.15,61.56z"
			/>
	</g>
	<g>
		<path class="st1" d="M1646.65,22.7c0.21,0,0.53,0.03,0.96,0.1c0.44,0.07,0.92,0.21,1.46,0.41c0.54,0.21,1.1,0.5,1.68,0.88
			c0.58,0.38,1.12,0.88,1.6,1.5c0.48,0.62,0.88,1.38,1.19,2.29c0.31,0.91,0.46,1.98,0.46,3.21c0,1.72-0.22,3.16-0.67,4.32
			c-0.45,1.16-1.03,2.09-1.74,2.79c-0.71,0.7-1.51,1.21-2.39,1.53c-0.88,0.32-1.75,0.52-2.6,0.58h-0.55c-0.76,0-1.44-0.09-2.05-0.26
			c-0.61-0.17-1.14-0.35-1.6-0.53c-0.53-0.23-0.99-0.48-1.38-0.76l-0.14,3.54c-0.02,1.03-0.26,1.84-0.72,2.44
			c-0.46,0.6-0.97,1.04-1.53,1.32c-0.56,0.29-1.12,0.46-1.67,0.53c-0.55,0.07-0.94,0.1-1.17,0.1h-0.21c-1.22,0-2.17-0.18-2.85-0.53
			c-0.69-0.36-1.2-0.77-1.55-1.24c-0.34-0.47-0.56-0.93-0.64-1.39c-0.08-0.46-0.12-0.78-0.12-0.96V27.14c0-0.25,0.05-0.62,0.14-1.12
			c0.09-0.49,0.31-0.99,0.65-1.48c0.34-0.49,0.86-0.92,1.55-1.29c0.69-0.37,1.63-0.55,2.82-0.55c1.1,0,1.98,0.14,2.63,0.41
			c0.65,0.28,1.14,0.57,1.46,0.89c0.39,0.39,0.64,0.84,0.76,1.34c0.48-0.62,1.01-1.1,1.58-1.44c0.57-0.34,1.12-0.61,1.65-0.79
			c0.53-0.18,1.01-0.3,1.46-0.34c0.45-0.05,0.79-0.07,1.01-0.07H1646.65z M1645.17,31.71c0-0.83-0.25-1.54-0.76-2.13
			c-0.5-0.6-1.13-0.89-1.89-0.89c-0.73,0-1.35,0.3-1.86,0.89c-0.5,0.6-0.76,1.31-0.76,2.13c0,0.85,0.25,1.57,0.76,2.17
			c0.5,0.6,1.12,0.89,1.86,0.89c0.76,0,1.39-0.3,1.89-0.89C1644.92,33.28,1645.17,32.56,1645.17,31.71z"/>
	</g>
	<g>
		<g>
			<path class="st1" d="M1616.63,88.21c-17.08,0-30.97-13.89-30.97-30.97s13.89-30.97,30.97-30.97c1.1,0,1.99,0.89,1.99,1.99
				c0,1.1-0.89,1.99-1.99,1.99c-14.88,0-26.99,12.11-26.99,26.99s12.11,26.99,26.99,26.99c14.88,0,26.99-12.11,26.99-26.99
				c0-1.1,0.89-1.99,1.99-1.99s1.99,0.89,1.99,1.99C1647.6,74.32,1633.71,88.21,1616.63,88.21z"/>
		</g>
	</g>
	<g>
		<circle class="st1" cx="1645.79" cy="49.81" r="2.54"/>
	</g>
</g>
<path class="st1" d="M1036.31-68H821.69C814.13-68,808-74.13,808-81.69v-362.63c0-7.56,6.13-13.69,13.69-13.69h214.63
	c7.56,0,13.69,6.13,13.69,13.69v362.63C1050-74.13,1043.87-68,1036.31-68z"/>
<text transform="matrix(1 0 0 1 861.1855 -393.0742)" class="st3 st4">FORMULE </text>
<g>
	<path class="st1" d="M1152.07,269h-102.15c-8.8,0-15.93-7.13-15.93-15.93v-2.15c0-8.8,7.13-15.93,15.93-15.93h102.15
		c8.8,0,15.93,7.13,15.93,15.93v2.15C1168,261.87,1160.87,269,1152.07,269z"/>
</g>
<text transform="matrix(1 0 0 1 1056.0742 257)" class="st3 st4">EN SAVOIR PLUS</text>
<polyline class="st1" points="636.72,124.46 690.62,177.95 634,235 "/>
<path class="st2" d="M422.31,650H207.69c-7.56,0-13.69-6.13-13.69-13.69V378.69c0-7.56,6.13-13.69,13.69-13.69h214.63
	c7.56,0,13.69,6.13,13.69,13.69v257.63C436,643.87,429.87,650,422.31,650z"/>
<path class="st2" d="M789.81,650H575.19c-7.56,0-13.69-6.13-13.69-13.69V378.69c0-7.56,6.13-13.69,13.69-13.69h214.63
	c7.56,0,13.69,6.13,13.69,13.69v257.63C803.5,643.87,797.37,650,789.81,650z"/>
<path class="st2" d="M1157.31,650H942.69c-7.56,0-13.69-6.13-13.69-13.69V378.69c0-7.56,6.13-13.69,13.69-13.69h214.63
	c7.56,0,13.69,6.13,13.69,13.69v257.63C1171,643.87,1164.87,650,1157.31,650z"/>
<rect y="810" class="st1" width="1366" height="768"/>
<rect y="1514" class="st0" width="1366" height="64"/>
<g>
	<circle class="st1" cx="108" cy="1550" r="22"/>
</g>
<g>
	<circle class="st1" cx="161" cy="1550" r="22"/>
</g>
<g>
	<circle class="st1" cx="210" cy="1550" r="22"/>
</g>
<path class="st1" d="M409.5,1566h-150c-3.59,0-6.5-2.91-6.5-6.5l0,0c0-3.59,2.91-6.5,6.5-6.5h150c3.59,0,6.5,2.91,6.5,6.5l0,0
	C416,1563.09,413.09,1566,409.5,1566z"/>
<path class="st1" d="M409.5,1546h-150c-3.59,0-6.5-2.91-6.5-6.5l0,0c0-3.59,2.91-6.5,6.5-6.5h150c3.59,0,6.5,2.91,6.5,6.5l0,0
	C416,1543.09,413.09,1546,409.5,1546z"/>
<text transform="matrix(1 0 0 1 527 929.8125)" class="st3" style="font-size:40.4076px;">temoignage</text>
<path class="st2" d="M172.5,1261.81v-214.63c0-7.56,6.13-13.69,13.69-13.69h257.63c7.56,0,13.69,6.13,13.69,13.69v214.63
	c0,7.56-6.13,13.69-13.69,13.69H186.19C178.63,1275.5,172.5,1269.37,172.5,1261.81z"/>
<path class="st2" d="M540,1261.81v-214.63c0-7.56,6.13-13.69,13.69-13.69h257.63c7.56,0,13.69,6.13,13.69,13.69v214.63
	c0,7.56-6.13,13.69-13.69,13.69H553.69C546.13,1275.5,540,1269.37,540,1261.81z"/>
<path class="st2" d="M907.5,1261.81v-214.63c0-7.56,6.13-13.69,13.69-13.69h257.63c7.56,0,13.69,6.13,13.69,13.69v214.63
	c0,7.56-6.13,13.69-13.69,13.69H921.19C913.63,1275.5,907.5,1269.37,907.5,1261.81z"/>
<rect x="691" y="29" class="st1" width="146" height="21"/>
<rect x="877" y="29" class="st1" width="146" height="21"/>
<rect x="1063" y="29" class="st1" width="146" height="21"/>
<circle class="st1" cx="1324.5" cy="34.5" r="19.5"/>
<circle class="st5" cx="1337" cy="21" r="7"/>
</svg>
